<?xml version="1.0" encoding="utf-8"?>
<!-- Generator: Adobe Illustrator 16.0.4, SVG Export Plug-In . SVG Version: 6.00 Build 0)  -->
<!DOCTYPE svg PUBLIC "-//W3C//DTD SVG 1.1//EN" "http://www.w3.org/Graphics/SVG/1.1/DTD/svg11.dtd">
<svg version="1.1" id="Layer_1" xmlns="http://www.w3.org/2000/svg" xmlns:xlink="http://www.w3.org/1999/xlink" x="0px" y="0px"
	 width="800px" height="600px" viewBox="0 0 800 600" enable-background="new 0 0 800 600" xml:space="preserve">
<rect x="41.884" y="84.978" fill="none" width="706.232" height="146.993"/>
<text transform="matrix(1 0 0 1 41.8838 229.1768)" fill="#F4A2C6" font-family="'Mission-Script'" font-size="200">SweetTooth</text>
<rect x="41.884" y="246.971" fill="none" width="686.232" height="24.993"/>
<text transform="matrix(1 0 0 1 49.3428 264.4907)" fill="#E06AA1" font-family="'Raleway-LightItalic'" font-size="24">The sweetest web application tailored for all candy enthusiasts!</text>
<g>
	<defs>
		<rect id="SVGID_5_" x="55" y="291.827" width="680" height="106.271"/>
	</defs>
	<clipPath id="SVGID_2_">
		<use xlink:href="#SVGID_5_"  overflow="visible"/>
	</clipPath>
	
		<line clip-path="url(#SVGID_2_)" fill="none" stroke="#F4A2C6" stroke-width="3.5417" stroke-linecap="round" x1="56.774" y1="346.731" x2="285.726" y2="346.731"/>
	
		<line clip-path="url(#SVGID_2_)" fill="none" stroke="#F4A2C6" stroke-width="3.5417" stroke-linecap="round" x1="494.274" y1="346.731" x2="733.226" y2="346.731"/>
	<path clip-path="url(#SVGID_2_)" fill="#F4A2C6" d="M390.458,393.132c16.119,0,30.391-7.918,39.133-20.074
		c0.76-1.058,26.984,5.482,26.984,5.482s-7.701-9.31,0-25.75c7.705-16.442,0-30.399,0-30.399l-22.012,3.193
		c-7.463-16.95-24.4-28.78-44.105-28.78c0,0-0.643-0.032-0.92,0c-16.117,0-30.389,7.92-39.129,20.078
		c-0.762,1.056-26.986-5.493-26.986-5.493s7.703,9.318,0,25.768c-7.703,16.434,0,30.392,0,30.392l22.012-3.194
		c7.463,16.947,24.402,28.778,44.104,28.778C390.001,393.171,390.458,393.132,390.458,393.132"/>
	<path clip-path="url(#SVGID_2_)" fill="#D1232A" d="M390.245,369.058c-11.916-7.291-21.732-12.417-26.238-26.009
		c-5.684-17.151,14.037-30.517,25.611-15.009c13.008-15.508,32.152,0.188,26.295,15.46
		C410.05,358.769,396.767,364.912,390.245,369.058"/>
</g>
</svg>
