<?xml version="1.0" encoding="utf-8"?>
<!-- Generator: Adobe Illustrator 16.0.4, SVG Export Plug-In . SVG Version: 6.00 Build 0)  -->
<!DOCTYPE svg PUBLIC "-//W3C//DTD SVG 1.1//EN" "http://www.w3.org/Graphics/SVG/1.1/DTD/svg11.dtd">
<svg version="1.1" id="Layer_1" xmlns="http://www.w3.org/2000/svg" xmlns:xlink="http://www.w3.org/1999/xlink" x="0px" y="0px"
	 width="800px" height="600px" viewBox="0 0 800 600" enable-background="new 0 0 800 600" xml:space="preserve">
<g>
	<defs>
		<rect id="SVGID_1_" x="50.502" y="59.1" width="700" height="481.831"/>
	</defs>
	<clipPath id="SVGID_2_">
		<use xlink:href="#SVGID_1_"  overflow="visible"/>
	</clipPath>
	<path clip-path="url(#SVGID_2_)" fill="#F4A2C6" d="M402.782,540.812c80.601,0,151.982-39.584,195.669-100.359
		c3.811-5.304,134.929,27.438,134.929,27.438s-38.502-46.578,0-128.811c38.522-82.176,0-151.967,0-151.967l-110.059,15.948
		C586.005,118.332,501.287,59.168,402.782,59.168c0,0-3.193-0.166-4.561,0c-80.607,0-151.973,39.614-195.684,100.415
		c-3.799,5.275-134.93-27.441-134.93-27.441s38.504,46.558,0,128.771c-38.499,82.202,0,151.995,0,151.995l110.066-15.984
		c37.332,84.766,122.025,143.889,220.547,143.889C400.506,541.036,402.782,540.812,402.782,540.812"/>
	<path clip-path="url(#SVGID_2_)" fill="#D1232A" d="M401.703,420.43c-59.548-36.429-108.634-62.072-131.168-130.001
		c-28.455-85.773,70.188-152.57,128.082-75.062c65.009-77.508,160.769,0.959,131.475,77.282
		C500.761,369.025,434.295,399.724,401.703,420.43"/>
</g>
</svg>
