<?xml version="1.0" encoding="utf-8"?>
<!-- Generator: Adobe Illustrator 16.0.4, SVG Export Plug-In . SVG Version: 6.00 Build 0)  -->
<!DOCTYPE svg PUBLIC "-//W3C//DTD SVG 1.1//EN" "http://www.w3.org/Graphics/SVG/1.1/DTD/svg11.dtd">
<svg version="1.1" id="Layer_1" xmlns="http://www.w3.org/2000/svg" xmlns:xlink="http://www.w3.org/1999/xlink" x="0px" y="0px"
	 width="800px" height="600px" viewBox="0 0 800 600" enable-background="new 0 0 800 600" xml:space="preserve">
<rect x="199.029" y="268.071" fill="none" width="595.94" height="110.571"/>
<text transform="matrix(1.1218 0 0 1 199.0312 376.54)" fill="#F4A2C6" font-family="'Mission-Script'" font-size="150.4426">SweetTooth</text>
<g>
	<path fill="#F4A2C6" d="M93.785,378.768c18.028,0,33.992-9.109,43.771-23.096c0.851-1.217,30.186,6.307,30.186,6.307
		s-8.616-10.709,0-29.622c8.618-18.916,0-34.975,0-34.975l-24.624,3.673c-8.346-19.5-27.292-33.109-49.332-33.109
		c0,0-0.72-0.037-1.03,0c-18.028,0-33.993,9.11-43.769,23.099c-0.853,1.215-30.186-6.319-30.186-6.319s8.616,10.721,0,29.645
		c-8.618,18.905,0,34.964,0,34.964l24.622-3.673c8.346,19.496,27.295,33.106,49.332,33.106
		C93.272,378.812,93.785,378.768,93.785,378.768"/>
	<path fill="#D1232A" d="M93.546,355.485c-13.329-8.391-24.31-14.286-29.351-29.924c-6.357-19.732,15.703-35.108,28.648-17.269
		c14.55-17.841,35.965,0.218,29.412,17.787C115.697,343.646,100.839,350.715,93.546,355.485"/>
</g>
</svg>
